<svg width="106" height="79" viewBox="0 0 106 79" fill="none" xmlns="http://www.w3.org/2000/svg">
<path d="M101.031 0H4.96875C3.65096 0 2.38713 0.49386 1.45531 1.37294C0.523492 2.25201 0 3.4443 0 4.6875L0 57.8125C0 59.0557 0.523492 60.248 1.45531 61.1271C2.38713 62.0061 3.65096 62.5 4.96875 62.5H5.79688V65.625C5.79688 66.8682 6.32037 68.0605 7.25219 68.9396C8.18401 69.8186 9.44783 70.3125 10.7656 70.3125H11.5938V73.4375C11.5938 74.6807 12.1172 75.873 13.0491 76.7521C13.9809 77.6311 15.2447 78.125 16.5625 78.125H89.4375C90.7553 78.125 92.0191 77.6311 92.9509 76.7521C93.8828 75.873 94.4062 74.6807 94.4062 73.4375V70.3125H95.2344C96.5522 70.3125 97.816 69.8186 98.7478 68.9396C99.6796 68.0605 100.203 66.8682 100.203 65.625V62.5H101.031C102.349 62.5 103.613 62.0061 104.545 61.1271C105.477 60.248 106 59.0557 106 57.8125V4.6875C106 3.4443 105.477 2.25201 104.545 1.37294C103.613 0.49386 102.349 0 101.031 0ZM91.0938 73.4375C91.0938 73.8519 90.9193 74.2493 90.6086 74.5424C90.298 74.8354 89.8768 75 89.4375 75H16.5625C16.1232 75 15.702 74.8354 15.3914 74.5424C15.0807 74.2493 14.9062 73.8519 14.9062 73.4375V70.3125H91.0938V73.4375ZM96.8906 65.625C96.8906 66.0394 96.7161 66.4368 96.4055 66.7299C96.0949 67.0229 95.6736 67.1875 95.2344 67.1875H10.7656C10.3264 67.1875 9.90509 67.0229 9.59448 66.7299C9.28387 66.4368 9.10938 66.0394 9.10938 65.625V62.5H96.8906V65.625ZM102.688 57.8125C102.688 58.2269 102.513 58.6243 102.202 58.9174C101.892 59.2104 101.471 59.375 101.031 59.375H4.96875C4.52949 59.375 4.10821 59.2104 3.7976 58.9174C3.487 58.6243 3.3125 58.2269 3.3125 57.8125V4.6875C3.3125 4.2731 3.487 3.87567 3.7976 3.58265C4.10821 3.28962 4.52949 3.125 4.96875 3.125H101.031C101.471 3.125 101.892 3.28962 102.202 3.58265C102.513 3.87567 102.688 4.2731 102.688 4.6875V57.8125Z" fill="#005596"/>
<path d="M92.75 21.875C90.1144 21.875 87.5868 20.8873 85.7231 19.1291C83.8595 17.371 82.8125 14.9864 82.8125 12.5C82.8125 12.0856 82.638 11.6882 82.3274 11.3951C82.0168 11.1021 81.5955 10.9375 81.1562 10.9375H24.8438C24.4045 10.9375 23.9832 11.1021 23.6726 11.3951C23.362 11.6882 23.1875 12.0856 23.1875 12.5C23.1875 14.9864 22.1405 17.371 20.2769 19.1291C18.4132 20.8873 15.8856 21.875 13.25 21.875C12.8107 21.875 12.3895 22.0396 12.0789 22.3326C11.7682 22.6257 11.5938 23.0231 11.5938 23.4375V39.0625C11.5938 39.4769 11.7682 39.8743 12.0789 40.1674C12.3895 40.4604 12.8107 40.625 13.25 40.625C15.8856 40.625 18.4132 41.6127 20.2769 43.3709C22.1405 45.129 23.1875 47.5136 23.1875 50C23.1875 50.4144 23.362 50.8118 23.6726 51.1049C23.9832 51.3979 24.4045 51.5625 24.8438 51.5625H81.1562C81.5955 51.5625 82.0168 51.3979 82.3274 51.1049C82.638 50.8118 82.8125 50.4144 82.8125 50C82.8125 47.5136 83.8595 45.129 85.7231 43.3709C87.5868 41.6127 90.1144 40.625 92.75 40.625C93.1893 40.625 93.6105 40.4604 93.9211 40.1674C94.2318 39.8743 94.4062 39.4769 94.4062 39.0625V23.4375C94.4062 23.0231 94.2318 22.6257 93.9211 22.3326C93.6105 22.0396 93.1893 21.875 92.75 21.875ZM91.0938 37.5937C88.1733 37.94 85.4581 39.1938 83.3768 41.1574C81.2955 43.1209 79.9664 45.6823 79.5994 48.4375H26.4006C26.0336 45.6823 24.7045 43.1209 22.6232 41.1574C20.5419 39.1938 17.8267 37.94 14.9062 37.5937V24.9063C17.8267 24.56 20.5419 23.3062 22.6232 21.3426C24.7045 19.3791 26.0336 16.8177 26.4006 14.0625H79.5994C79.9664 16.8177 81.2955 19.3791 83.3768 21.3426C85.4581 23.3062 88.1733 24.56 91.0938 24.9063V37.5937Z" fill="#005596"/>
<path d="M53 17.1875C50.0518 17.1875 47.1699 18.0123 44.7185 19.5575C42.2672 21.1027 40.3566 23.2989 39.2284 25.8685C38.1002 28.4381 37.805 31.2656 38.3802 33.9935C38.9553 36.7213 40.375 39.227 42.4597 41.1937C44.5444 43.1604 47.2004 44.4997 50.0919 45.0423C52.9835 45.5849 55.9806 45.3064 58.7044 44.2421C61.4281 43.1777 63.7562 41.3753 65.3941 39.0627C67.032 36.7501 67.9063 34.0313 67.9063 31.25C67.9063 27.5204 66.3358 23.9435 63.5403 21.3063C60.7449 18.6691 56.9534 17.1875 53 17.1875ZM53 42.1875C50.707 42.1875 48.4654 41.546 46.5589 40.3442C44.6523 39.1424 43.1663 37.4342 42.2888 35.4356C41.4113 33.437 41.1817 31.2379 41.629 29.1162C42.0764 26.9945 43.1806 25.0457 44.802 23.516C46.4234 21.9864 48.4892 20.9447 50.7382 20.5227C52.9871 20.1006 55.3183 20.3172 57.4367 21.1451C59.5552 21.9729 61.3659 23.3748 62.6399 25.1734C63.9138 26.9721 64.5938 29.0868 64.5938 31.25C64.5938 34.1508 63.3723 36.9328 61.198 38.984C59.0238 41.0352 56.0749 42.1875 53 42.1875Z" fill="#005596"/>
</svg>
